<svg width="47" height="46" viewBox="0 0 47 46" fill="none" xmlns="http://www.w3.org/2000/svg">
<path d="M47 23C47 28.386 45.1084 33.3397 41.94 37.2593C37.6359 42.5837 30.9756 46 23.5 46C16.0244 46 9.36413 42.5837 5.06004 37.2593C1.89159 33.3397 0 28.386 0 23C0 10.2975 10.5213 0 23.5 0C36.4787 0 47 10.2975 47 23Z" fill="#606B5B"/>
<path fill-rule="evenodd" clip-rule="evenodd" d="M23.5 7.66667C21.1609 7.66667 18.9175 8.56415 17.2635 10.1617C15.6095 11.7592 14.6802 13.9259 14.6802 16.1852C14.6802 18.4444 15.6095 20.6112 17.2635 22.2087C18.9175 23.8062 21.1609 24.7037 23.5 24.7037C25.8391 24.7037 28.0825 23.8062 29.7365 22.2087C31.3905 20.6112 32.3198 18.4444 32.3198 16.1852C32.3198 13.9259 31.3905 11.7592 29.7365 10.1617C28.0825 8.56415 25.8391 7.66667 23.5 7.66667ZM23.5 46C30.9756 46 37.6359 42.5837 41.94 37.2593C38.3616 33.1569 28.8105 31.0926 23.5 31.0926C18.1895 31.0926 8.6384 33.1569 5.06004 37.2593C9.36413 42.5837 16.0244 46 23.5 46Z" fill="#D8E0D4"/>
</svg>
