<svg width="36" height="36" viewBox="0 0 36 36" fill="none" xmlns="http://www.w3.org/2000/svg">
<mask id="mask0_1415_1313" style="mask-type:luminance" maskUnits="userSpaceOnUse" x="0" y="0" width="35" height="36">
<path d="M34.6586 0H0.0986328V36H34.6586V0Z" fill="white"/>
</mask>
<g mask="url(#mask0_1415_1313)">
<path d="M20.9082 5.06982V6.56982H7.91699V5.06982H20.9082Z" fill="#606B5B"/>
<path d="M9.36328 2.25L7.56348 24.75H29.5518L30.1025 16.7051L31.5986 16.8076L30.9521 26.25H5.93945L7.73926 3.75H2.40137V2.25H9.36328Z" fill="#606B5B"/>
<path opacity="0.4" d="M24.7354 31.125C24.7354 30.4751 24.2364 30 23.6855 30C23.1348 30.0001 22.6357 30.4751 22.6357 31.125C22.6357 31.7749 23.1348 32.2499 23.6855 32.25C24.2364 32.25 24.7354 31.7749 24.7354 31.125ZM26.2354 31.125C26.2354 32.5451 25.1219 33.75 23.6855 33.75C22.2493 33.7499 21.1357 32.545 21.1357 31.125C21.1357 29.705 22.2493 28.5001 23.6855 28.5C25.1219 28.5 26.2354 29.7049 26.2354 31.125Z" fill="#606B5B"/>
<path opacity="0.4" d="M13.2148 31.125C13.2148 30.4751 12.7159 30 12.165 30C11.6143 30.0001 11.1152 30.4751 11.1152 31.125C11.1152 31.7749 11.6143 32.2499 12.165 32.25C12.7159 32.25 13.2148 31.7749 13.2148 31.125ZM14.7148 31.125C14.7148 32.5451 13.6014 33.75 12.165 33.75C10.7288 33.7499 9.61523 32.545 9.61523 31.125C9.61523 29.705 10.7288 28.5001 12.165 28.5C13.6014 28.5 14.7148 29.7049 14.7148 31.125Z" fill="#606B5B"/>
<path opacity="0.4" d="M22.3906 11.25V12.75H12.4814V11.25H22.3906Z" fill="#606B5B"/>
<path d="M28.8408 5.03369C29.4531 6.18702 30.3629 7.13213 31.4619 7.76514L32.5898 8.41553L31.4619 9.06494C30.3629 9.69797 29.4531 10.644 28.8408 11.7974L28.1787 13.0444L27.5156 11.7974C26.9034 10.6441 25.9945 9.69797 24.8955 9.06494L23.7666 8.41553L24.8955 7.76514C25.9943 7.13214 26.9035 6.18686 27.5156 5.03369L28.1787 3.78564L28.8408 5.03369ZM28.1777 6.78955C27.7276 7.4019 27.1998 7.94918 26.6064 8.41455C27.1998 8.8798 27.7276 9.42734 28.1777 10.0396C28.6278 9.42736 29.1558 8.87982 29.749 8.41455C29.1558 7.94917 28.6278 7.40187 28.1777 6.78955Z" fill="#606B5B"/>
</g>
</svg>
