<svg width="36" height="36" viewBox="0 0 36 36" fill="none" xmlns="http://www.w3.org/2000/svg">
<path opacity="0.4" d="M27.25 12.9883L23.0088 17.2295L18.7686 12.9883L23.0088 8.74805L27.25 12.9883ZM20.8887 12.9883L23.0088 15.1074L25.1279 12.9883L23.0088 10.8682L20.8887 12.9883Z" fill="#606B5B"/>
<path opacity="0.4" d="M23.5459 26.2646L22.4854 27.3252L8.68945 13.5293L9.75 12.4688L23.5459 26.2646Z" fill="#606B5B"/>
<path d="M19.9365 2.64062L31.9219 3.39062L32.582 3.43262L33.3945 16.4004L16.125 33.6699L2.3291 19.8896L19.5986 2.62012L19.9365 2.64062ZM4.4502 19.8887L16.124 31.5488L31.8545 15.8184L31.167 4.84668L20.1797 4.15918L4.4502 19.8887Z" fill="#606B5B"/>
</svg>
